<?xml version="1.0" encoding="iso-8859-1"?>
<!-- Generator: Adobe Illustrator 19.0.0, SVG Export Plug-In . SVG Version: 6.00 Build 0)  -->
<svg version="1.1" id="Capa_1" xmlns="http://www.w3.org/2000/svg" xmlns:xlink="http://www.w3.org/1999/xlink" x="0px" y="0px"
	 viewBox="0 0 383.637 383.637" style="enable-background:new 0 0 383.637 383.637;" xml:space="preserve">
<g>
	<polygon style="fill:#FFFFFF;" points="38.037,316.38 67.637,291.58 74.037,324.38 43.637,348.38 	"/>
	<polygon style="fill:#FFFFFF;" points="6.837,304.38 37.237,279.58 67.637,291.58 38.037,316.38 	"/>
	<polygon style="fill:#FFFFFF;" points="37.237,279.58 66.837,254.78 97.237,266.78 67.637,291.58 	"/>
	<polygon style="fill:#FFFFFF;" points="67.637,291.58 97.237,266.78 103.637,299.58 74.037,324.38 	"/>
</g>
<path style="fill:#F8305F;" d="M178.837,353.98c-26.4-14.4-51.2-32.8-72.8-53.6l-1.6-1.6l-6.4-32l0.8-0.8l-0.8,0.8l-30.4-12h-4.8
	l-2.4-3.2c-25.6-33.6-80-117.6-21.6-171.2c15.2-16,36.8-25.6,59.2-26.4c2.4,0,4.8,0,7.2,0c44.8,4.8,76.8,48.8,76.8,49.6
	s32-44.8,76.8-49.6c2.4,0,4.8,0,7.2,0c22.4,0.8,44,10.4,59.2,26.4c20.8,19.2,30.4,47.2,24.8,74.4c-10.4,72.8-93.6,161.6-164.8,199.2
	l-2.4,2.4L178.837,353.98z M107.637,258.78l24.8-20.8L107.637,258.78z"/>
<path style="fill:#28150B;" d="M380.437,30.78c-1.6-1.6-3.2-2.4-4.8-3.2l-57.6-7.2c-4-0.8-8,2.4-8.8,7.2l0,0c-0.8,4,2.4,8,7.2,8.8
	l0,0l39.2,4.8l-32,26.4c-17.6-16-41.6-23.2-64.8-21.6c-36,4-64,30.4-76,44.8c-12-13.6-40-40.8-76-44.8c-25.6-2.4-49.6,7.2-72.8,28
	c-44.8,40.8-36.8,107.2,20,180.8l-51.2,42.4c-3.2,3.2-4,8-0.8,11.2c0.8,0.8,1.6,1.6,3.2,2.4l26.4,10.4l5.6,28c0.8,4,4.8,7.2,9.6,6.4
	c1.6,0,2.4-0.8,3.2-1.6l54.4-44.8c22.4,20.8,48,39.2,75.2,53.6c2.4,0.8,4.8,0.8,7.2,0c72-36.8,160.8-130.4,172-206.4
	c5.6-28-3.2-56.8-23.2-76.8l30.4-24.8l-2.4,40c0,4,3.2,8,7.2,8.8h0.8c4,0,8-3.2,8-7.2l4-58.4
	C382.837,34.78,382.037,32.38,380.437,30.78z M36.437,306.78l-13.6-4.8l16-13.6l13.6,5.6L36.437,306.78z M49.237,333.98l-2.4-14.4
	l16-12.8l2.4,14.4L49.237,333.98z M53.237,277.18l16-12.8l13.6,5.6l-16,12.8L53.237,277.18z M79.637,309.18l-2.4-14.4l11.2-8.8l0,0
	l4.8-4l1.6,14.4L79.637,309.18z M342.837,153.98c-9.6,69.6-92,156.8-160.8,193.6c-25.6-14.4-49.6-32-71.2-52l-4.8-24.8l5.6-4.8
	l5.6-4l0,0l20-16.8c3.2-3.2,2.4-8.8-0.8-11.2c-2.4-2.4-6.4-2.4-8.8-0.8l-31.2,25.6l-26.4-10.4c-0.8,0-2.4-0.8-3.2-0.8
	c-27.2-35.2-75.2-112-22.4-160.8c19.2-17.6,39.2-25.6,60-24c40.8,4,71.2,45.6,71.2,46.4c1.6,2.4,4,3.2,6.4,3.2l0,0
	c2.4,0,4.8-1.6,6.4-3.2c0,0,30.4-41.6,71.2-46.4c20.8-2.4,40.8,5.6,60,24C338.837,103.58,347.637,129.18,342.837,153.98z"/>
<g>
</g>
<g>
</g>
<g>
</g>
<g>
</g>
<g>
</g>
<g>
</g>
<g>
</g>
<g>
</g>
<g>
</g>
<g>
</g>
<g>
</g>
<g>
</g>
<g>
</g>
<g>
</g>
<g>
</g>
</svg>
